<svg width="19" height="16" viewBox="0 0 19 16" fill="none" xmlns="http://www.w3.org/2000/svg">
<path d="M5.97535 15.4414C13.1456 15.4414 17.0666 9.50118 17.0666 4.35021C17.0666 4.18148 17.0631 4.01347 17.0556 3.84634C17.8166 3.29607 18.4782 2.6094 19 1.82779C18.3016 2.13829 17.5499 2.34717 16.7614 2.44154C17.5663 1.95883 18.1842 1.19548 18.4756 0.285424C17.7224 0.731897 16.8883 1.05631 16.0003 1.23157C15.2889 0.47387 14.2761 0 13.1547 0C11.0021 0 9.25634 1.74574 9.25634 3.89765C9.25634 4.20366 9.29055 4.50112 9.35738 4.78654C6.11755 4.62346 3.24461 3.0724 1.32217 0.713632C0.987459 1.2897 0.794374 1.95897 0.794374 2.67304C0.794374 4.02536 1.48264 5.21939 2.5291 5.9178C1.88954 5.89808 1.28883 5.72254 0.763643 5.4303C0.763063 5.44668 0.763063 5.46263 0.763063 5.48002C0.763063 7.36797 2.10669 8.94425 3.89055 9.30143C3.56294 9.39058 3.21823 9.43856 2.86265 9.43856C2.61187 9.43856 2.36747 9.41391 2.12988 9.36825C2.62622 10.9171 4.06537 12.0442 5.77153 12.0758C4.43733 13.1215 2.75654 13.7444 0.929911 13.7444C0.61564 13.7444 0.305138 13.7264 0 13.6905C1.72515 14.7962 3.77371 15.4414 5.97535 15.4414Z" fill="#1976D2"/>
</svg>
